PathFileType	4	(X/Y/Z)	s10c0303.trc
DataRate	CameraRate	NumFrames	NumMarkers	Units	OrigDataRate	OrigDataStartFrame	OrigNumFrames
200	200	4	50	mm	200	0	2000
Frame#	Time	racr			lacr			c7			jug			rlel			rdr			llel			ldr			s2			lic			ric			lasi			rasi			rpsi			lpsi			rgt			lgt			rth1			rth2			rth3			rth4			rlfc			rmfc			rsh1			rsh2			rsh3			rsh4			rlmal			rmmal			rcal			rtoe			rmt5			lth1			lth2			lth4			lth3			llfc			lmfc			llmal			lmmal			lcal			lmt5			lsh1			lsh2			lsh3			lsh4			ltoe			SBIKE			LBIKE			RBIKE			
		X1	Y1	Z1	X2	Y2	Z2	X3	Y3	Z3	X4	Y4	Z4	X5	Y5	Z5	X6	Y6	Z6	X7	Y7	Z7	X8	Y8	Z8	X9	Y9	Z9	X10	Y10	Z10	X11	Y11	Z11	X12	Y12	Z12	X13	Y13	Z13	X14	Y14	Z14	X15	Y15	Z15	X16	Y16	Z16	X17	Y17	Z17	X18	Y18	Z18	X19	Y19	Z19	X20	Y20	Z20	X21	Y21	Z21	X22	Y22	Z22	X23	Y23	Z23	X24	Y24	Z24	X25	Y25	Z25	X26	Y26	Z26	X27	Y27	Z27	X28	Y28	Z28	X29	Y29	Z29	X30	Y30	Z30	X31	Y31	Z31	X32	Y32	Z32	X33	Y33	Z33	X34	Y34	Z34	X35	Y35	Z35	X36	Y36	Z36	X37	Y37	Z37	X38	Y38	Z38	X39	Y39	Z39	X40	Y40	Z40	X41	Y41	Z41	X42	Y42	Z42	X43	Y43	Z43	X44	Y44	Z44	X45	Y45	Z45	X46	Y46	Z46	X47	Y47	Z47	X48	Y48	Z48	X49	Y49	Z49	X50	Y50	Z50	
0	0.0000	425.732448	1303.534615	-47.788979	428.493665	1312.308112	-382.026844	418.751006	1348.115911	-213.974451	441.176926	1207.670849	-211.897256	507.218082	1054.790631	17.616390	643.697800	877.860252	-50.331641	504.670089	1057.702801	-472.089011	642.131070	881.860189	-415.153721	-71.397216	1110.007008	-209.828730	92.652155	1081.765010	-363.917588	118.642854	1074.433268	-87.570223	97.987628	994.480744	-342.567122	94.973792	1001.404932	-91.310814	-13.010136	1141.922734	-157.768419	-8.012944	1146.685119	-269.069522	-16.815528	1021.361963	-15.067571	-45.704398	988.747827	-411.247042	61.505151	923.727113	14.000067	149.818050	912.889964	3.757901	217.593633	860.479702	-0.142767	161.516997	946.970009	-9.138759	324.383071	813.491468	-18.712420	323.294862	806.411567	-136.956902	267.938591	708.263379	-3.882754	270.588817	620.974736	-22.016968	230.016297	546.159492	-36.487357	302.292968	618.951333	-43.552847	208.548742	446.850725	-61.700955	234.089045	469.934608	-137.645362	158.228053	427.209777	-110.054263	398.881204	404.443851	-105.383426	317.709781	376.563566	-42.669456	20.094479	872.074255	-433.242918	96.694193	830.747498	-425.404965	121.292275	856.581008	-415.627472	142.178152	754.366821	-421.990101	217.884776	670.781902	-406.317165	225.319092	662.939959	-285.818020	-39.764301	399.187498	-377.633278	-17.888077	391.018149	-299.316398	-95.886096	404.574010	-330.339854	7.980819	265.428120	-399.522366	120.187843	595.387305	-425.733434	90.644377	512.700056	-409.184565	21.240005	458.882746	-399.237765	117.700720	499.694099	-386.441533	88.274583	246.151991	-351.204744	-217.491611	831.589858	-214.462274	-104.301926	80.306000	-418.402916	-103.569385	81.395446	-18.065766	
1	0.0050	425.707353	1303.429385	-47.790518	428.451757	1312.207110	-382.079780	418.745858	1348.011925	-214.006744	441.122927	1207.562579	-211.932918	507.129080	1054.708176	17.674078	643.668787	877.845714	-50.316086	504.447334	1057.539909	-472.180141	642.110346	881.834931	-415.112622	-71.486780	1109.981847	-209.795508	92.513596	1081.827122	-363.962014	118.565990	1074.468541	-87.571950	97.890804	994.501701	-342.579329	94.906026	1001.399895	-91.283181	-13.062594	1141.931286	-157.766426	-8.097538	1146.699080	-269.055611	-16.849394	1021.311513	-15.078399	-45.778423	988.720446	-411.239576	61.482888	923.675154	13.994423	149.800122	912.884405	3.775206	217.579799	860.500158	-0.121102	161.512421	946.957703	-9.094111	324.385849	813.491128	-18.685535	323.307597	806.423552	-136.950199	267.900815	708.298803	-3.875658	270.576375	620.981421	-22.025948	229.974763	546.189658	-36.501909	302.274686	618.945235	-43.551300	208.525761	446.874306	-61.722563	234.056802	469.985887	-137.671025	158.202965	427.213274	-110.067528	398.866309	404.512655	-105.396717	317.682980	376.622081	-42.655955	20.011826	872.042897	-433.295205	96.617252	830.674841	-425.450405	121.213504	856.526701	-415.698359	142.106381	754.324133	-422.035588	217.824004	670.760361	-406.391308	225.221849	662.955086	-285.934382	-39.789717	399.135542	-377.647513	-17.881028	390.985160	-299.335343	-95.901153	404.508920	-330.347986	7.989154	265.387543	-399.509568	120.139312	595.350577	-425.785377	90.603488	512.674250	-409.237318	21.196142	458.846784	-399.260431	117.670352	499.655303	-386.472477	88.279452	246.104635	-351.188103	-217.486956	831.575126	-214.469101	-104.091678	81.780302	-417.453203	-103.556996	81.389760	-18.064137	
2	0.0100	425.697107	1303.331017	-47.784260	428.407277	1312.113812	-382.128792	418.748633	1347.903906	-214.002529	441.069769	1207.458377	-211.956368	507.055491	1054.616269	17.753313	643.683268	877.841018	-50.277313	504.247752	1057.395298	-472.280362	642.095632	881.806903	-415.060234	-71.552434	1109.943209	-209.777404	92.404911	1081.873330	-363.979508	118.500875	1074.471500	-87.562820	97.802372	994.540227	-342.575505	94.886858	1001.413534	-91.274446	-13.127313	1141.908161	-157.745173	-8.169350	1146.714168	-269.032917	-16.906070	1021.273839	-15.083212	-45.844204	988.700532	-411.225973	61.467980	923.624680	14.013806	149.771700	912.861456	3.794213	217.566310	860.487005	-0.092703	161.486627	946.951117	-9.054487	324.383879	813.512141	-18.680322	323.325109	806.445831	-136.930920	267.877934	708.330079	-3.867450	270.543230	621.012670	-22.026086	229.954989	546.230240	-36.522633	302.266519	618.963983	-43.547931	208.474893	446.915236	-61.730040	234.037663	470.015377	-137.677095	158.177840	427.224833	-110.069688	398.836793	404.561590	-105.392079	317.667358	376.688448	-42.668122	19.932249	871.993949	-433.332152	96.551443	830.654111	-425.500211	121.134960	856.501482	-415.758652	142.026990	754.306919	-422.092767	217.787554	670.734416	-406.449469	225.135018	662.925841	-286.012653	-39.795504	399.078825	-377.642756	-17.928434	390.966751	-299.318560	-95.909137	404.443928	-330.335484	8.012960	265.335777	-399.502420	120.104359	595.308359	-425.836270	90.579723	512.625678	-409.252399	21.183167	458.787664	-399.290754	117.640260	499.644489	-386.522974	88.303274	246.078048	-351.199688	-217.486956	831.575126	-214.469101	-104.278110	80.333796	-418.364351	-103.558519	81.393136	-18.062933	
3	0.0150	425.673314	1303.184043	-47.784391	428.348959	1312.032730	-382.175162	418.889432	1348.095335	-214.259673	441.009262	1207.393442	-211.992093	506.994486	1054.555428	17.813268	643.691537	877.830949	-50.239118	504.050977	1057.247150	-472.341730	642.081995	881.770036	-415.004214	-71.296973	1110.904005	-209.858960	92.297237	1081.919939	-363.986242	118.644622	1074.588180	-87.568814	97.720187	994.753311	-342.779742	94.845298	1001.397155	-91.224502	-11.936660	1140.733043	-158.256977	-8.243461	1146.724315	-269.028196	-16.953512	1021.243098	-15.076815	-45.915938	988.666242	-411.203369	61.443997	923.566824	13.996825	150.045506	912.762419	3.820161	217.551928	860.496715	-0.072207	161.495382	946.779510	-9.141367	324.243898	813.203232	-18.230719	323.353612	806.528868	-137.336921	267.860021	708.370369	-3.865523	270.676600	621.242197	-21.939906	230.002934	546.237487	-36.527573	302.271278	618.822626	-43.679935	208.346699	447.057956	-61.639062	235.026617	471.284132	-137.417066	158.161664	427.266369	-110.088086	398.826334	404.616808	-105.397778	317.656748	376.739084	-42.665803	19.844861	871.967017	-433.374531	96.477002	830.617989	-425.553627	121.078083	856.661913	-416.050827	141.973980	754.268629	-422.136971	217.734601	670.710136	-406.521239	225.068300	662.924676	-286.089586	-39.806772	399.012254	-377.646437	-17.922333	390.933723	-299.339923	-95.918731	404.394916	-330.335594	8.021261	265.279328	-399.518767	119.681963	595.253062	-425.628299	90.481735	512.595421	-409.228536	21.075056	458.952927	-399.098955	116.837682	498.853353	-385.626258	88.309434	246.032684	-351.199307	-217.483447	831.582637	-214.468239	-104.073824	81.804269	-417.430831	-103.541852	81.377933	-18.050589	
